<?xml version="1.0" standalone="no"?>
<!DOCTYPE svg PUBLIC "-//W3C//DTD SVG 20010904//EN"
 "http://www.w3.org/TR/2001/REC-SVG-20010904/DTD/svg10.dtd">
<svg version="1.0" xmlns="http://www.w3.org/2000/svg"
 width="106.000000pt" height="105.000000pt" viewBox="0 0 106.000000 105.000000"
 preserveAspectRatio="xMidYMid meet">

<g transform="translate(0.000000,105.000000) scale(0.100000,-0.100000)"
fill="#000000" stroke="none">
<path d="M4 1019 c3 -17 6 -254 6 -525 l0 -494 525 0 525 0 -2 507 -3 508
-522 0 c-348 0 -519 3 -512 10 14 14 973 19 1011 6 22 -8 28 -7 28 5 0 12 -74
14 -531 14 l-532 0 7 -31z m536 -174 c45 -16 114 -55 108 -61 -2 -2 -31 8 -64
21 -95 40 -174 30 -174 -20 0 -14 1 -25 3 -25 1 0 24 7 51 15 81 25 186 14
186 -18 0 -6 13 1 28 16 15 15 42 30 60 33 64 13 122 -84 122 -203 0 -35 -3
-44 -10 -33 -5 8 -10 26 -10 40 0 46 -21 101 -49 133 -26 29 -31 30 -56 19
l-26 -12 47 -48 c52 -51 89 -122 79 -151 -4 -15 2 -21 27 -30 49 -17 68 -40
68 -80 0 -62 -59 -126 -160 -175 -34 -16 -34 -16 -10 1 93 66 150 146 131 182
-18 32 -40 34 -47 3 -22 -101 -71 -182 -109 -182 -10 0 -11 -7 -3 -34 13 -41
-5 -84 -42 -104 -32 -16 -95 -9 -160 19 -71 31 -88 56 -19 28 54 -21 143 -30
167 -16 11 7 18 57 8 57 -2 0 -32 -7 -67 -16 -68 -17 -140 -12 -159 11 -11 13
-17 11 -42 -10 -55 -47 -118 -30 -149 40 -22 50 -37 165 -22 165 6 0 13 -22
16 -49 7 -59 34 -119 63 -137 17 -12 23 -12 40 0 18 14 17 16 -22 58 -61 64
-74 88 -74 134 0 38 -3 42 -29 47 -40 8 -71 44 -71 82 0 43 45 104 107 143 70
45 73 40 10 -18 -62 -57 -89 -103 -77 -134 15 -41 42 -25 57 34 17 69 56 128
88 136 21 5 24 10 18 28 -12 36 -5 78 18 103 27 28 84 31 149 8z"/>
<path d="M438 753 c-10 -2 -18 -8 -18 -12 0 -24 107 -131 132 -131 17 0 67 57
74 85 11 45 -22 65 -105 64 -36 -1 -74 -3 -83 -6z"/>
<path d="M680 687 c-12 -26 -24 -69 -27 -96 l-6 -50 35 -6 c18 -4 52 -5 73 -3
35 3 40 6 43 31 4 35 -29 105 -68 142 l-30 28 -20 -46z"/>
<path d="M346 659 c-30 -24 -76 -108 -76 -140 0 -19 4 -21 38 -15 22 3 62 13
90 22 44 14 52 21 52 41 0 40 -45 111 -71 113 -4 0 -18 -9 -33 -21z"/>
<path d="M528 519 c-42 -24 -1 -82 42 -59 25 14 26 46 1 60 -23 12 -22 12 -43
-1z"/>
<path d="M712 461 c-29 -10 -55 -21 -58 -24 -11 -11 6 -74 27 -101 38 -48 84
-27 127 59 11 22 23 50 26 63 7 20 4 22 -31 22 -21 -1 -62 -9 -91 -19z"/>
<path d="M323 450 c-16 -6 -23 -18 -23 -35 0 -33 41 -113 74 -144 l26 -24 20
46 c12 26 24 69 27 96 5 47 5 48 -27 60 -39 13 -66 13 -97 1z"/>
<path d="M511 345 c-58 -67 -51 -110 22 -122 57 -9 147 5 147 24 0 16 -114
133 -129 133 -5 0 -23 -16 -40 -35z"/>
</g>
</svg>
